<mxfile host="app.diagrams.net" agent="Mozilla/5.0 (Windows NT 10.0; Win64; x64) AppleWebKit/537.36 (KHTML, like Gecko) Chrome/136.0.0.0 Safari/537.36 Edg/136.0.0.0" version="27.0.6">
  <diagram id="R2lEEEUBdFMjLlhIrx00" name="Page-1">
    <mxGraphModel dx="1216" dy="1735" grid="1" gridSize="10" guides="1" tooltips="1" connect="1" arrows="1" fold="1" page="1" pageScale="1" pageWidth="850" pageHeight="1100" math="0" shadow="0" extFonts="Permanent Marker^https://fonts.googleapis.com/css?family=Permanent+Marker">
      <root>
        <mxCell id="0" />
        <mxCell id="1" parent="0" />
        <mxCell id="XyRQ7dBo5zJN_Pz7w6I2-1" value="Oggetto" style="rounded=0;whiteSpace=wrap;html=1;" parent="1" vertex="1">
          <mxGeometry x="290" y="220" width="120" height="60" as="geometry" />
        </mxCell>
        <mxCell id="6DcWZOGvDvhyXqwXBAxN-2" style="edgeStyle=orthogonalEdgeStyle;shape=connector;rounded=0;orthogonalLoop=1;jettySize=auto;html=1;exitX=0.25;exitY=0;exitDx=0;exitDy=0;strokeColor=default;align=center;verticalAlign=middle;fontFamily=Helvetica;fontSize=11;fontColor=default;labelBackgroundColor=default;startFill=0;endArrow=none;" edge="1" parent="1" target="XyRQ7dBo5zJN_Pz7w6I2-7">
          <mxGeometry relative="1" as="geometry">
            <mxPoint x="620" y="-810" as="sourcePoint" />
          </mxGeometry>
        </mxCell>
        <mxCell id="XyRQ7dBo5zJN_Pz7w6I2-4" value="Oggetto" style="rounded=0;whiteSpace=wrap;html=1;fontFamily=Times New Roman;" parent="1" vertex="1">
          <mxGeometry x="590" y="-820" width="120" height="60" as="geometry" />
        </mxCell>
        <mxCell id="XyRQ7dBo5zJN_Pz7w6I2-5" value="" style="ellipse;whiteSpace=wrap;html=1;aspect=fixed;" parent="1" vertex="1">
          <mxGeometry x="560" y="-800" width="10" height="10" as="geometry" />
        </mxCell>
        <mxCell id="XyRQ7dBo5zJN_Pz7w6I2-7" value="" style="shape=waypoint;sketch=0;fillStyle=solid;size=6;pointerEvents=1;points=[];fillColor=none;resizable=0;rotatable=0;perimeter=centerPerimeter;snapToPoint=1;strokeWidth=3;" parent="1" vertex="1">
          <mxGeometry x="600" y="-850" width="20" height="20" as="geometry" />
        </mxCell>
        <mxCell id="XyRQ7dBo5zJN_Pz7w6I2-9" value="&lt;div&gt;Prezzo&amp;nbsp;&lt;br&gt;base&lt;/div&gt;" style="text;html=1;align=center;verticalAlign=middle;resizable=0;points=[];autosize=1;strokeColor=none;fillColor=none;fontSize=7;" parent="1" vertex="1">
          <mxGeometry x="520" y="-810" width="50" height="30" as="geometry" />
        </mxCell>
        <mxCell id="XyRQ7dBo5zJN_Pz7w6I2-10" value="&lt;font&gt;Codice&lt;/font&gt;" style="text;html=1;align=center;verticalAlign=middle;resizable=0;points=[];autosize=1;strokeColor=none;fillColor=none;fontSize=7;" parent="1" vertex="1">
          <mxGeometry x="585" y="-860" width="50" height="20" as="geometry" />
        </mxCell>
        <mxCell id="XyRQ7dBo5zJN_Pz7w6I2-11" value="" style="ellipse;whiteSpace=wrap;html=1;aspect=fixed;" parent="1" vertex="1">
          <mxGeometry x="645" y="-845" width="10" height="10" as="geometry" />
        </mxCell>
        <mxCell id="XyRQ7dBo5zJN_Pz7w6I2-12" value="&lt;font&gt;dimensioni&lt;/font&gt;" style="text;html=1;align=center;verticalAlign=middle;resizable=0;points=[];autosize=1;strokeColor=none;fillColor=none;fontSize=7;" parent="1" vertex="1">
          <mxGeometry x="615" y="-860" width="60" height="20" as="geometry" />
        </mxCell>
        <mxCell id="XyRQ7dBo5zJN_Pz7w6I2-13" value="" style="ellipse;whiteSpace=wrap;html=1;aspect=fixed;" parent="1" vertex="1">
          <mxGeometry x="675" y="-845" width="10" height="10" as="geometry" />
        </mxCell>
        <mxCell id="XyRQ7dBo5zJN_Pz7w6I2-14" value="" style="ellipse;whiteSpace=wrap;html=1;aspect=fixed;" parent="1" vertex="1">
          <mxGeometry x="725" y="-810" width="10" height="10" as="geometry" />
        </mxCell>
        <mxCell id="XyRQ7dBo5zJN_Pz7w6I2-15" value="&lt;font&gt;stato&lt;/font&gt;" style="text;html=1;align=center;verticalAlign=middle;resizable=0;points=[];autosize=1;strokeColor=none;fillColor=none;fontSize=7;" parent="1" vertex="1">
          <mxGeometry x="660" y="-860" width="40" height="20" as="geometry" />
        </mxCell>
        <mxCell id="XyRQ7dBo5zJN_Pz7w6I2-16" value="" style="endArrow=none;html=1;rounded=0;exitX=0.5;exitY=0;exitDx=0;exitDy=0;entryX=0.5;entryY=1;entryDx=0;entryDy=0;" parent="1" source="XyRQ7dBo5zJN_Pz7w6I2-4" target="XyRQ7dBo5zJN_Pz7w6I2-11" edge="1">
          <mxGeometry width="50" height="50" relative="1" as="geometry">
            <mxPoint x="610" y="-840" as="sourcePoint" />
            <mxPoint x="660" y="-890" as="targetPoint" />
          </mxGeometry>
        </mxCell>
        <mxCell id="XyRQ7dBo5zJN_Pz7w6I2-17" value="" style="endArrow=none;html=1;rounded=0;entryX=0.5;entryY=1;entryDx=0;entryDy=0;exitX=0.75;exitY=0;exitDx=0;exitDy=0;" parent="1" source="XyRQ7dBo5zJN_Pz7w6I2-4" target="XyRQ7dBo5zJN_Pz7w6I2-13" edge="1">
          <mxGeometry width="50" height="50" relative="1" as="geometry">
            <mxPoint x="680" y="-820" as="sourcePoint" />
            <mxPoint x="660" y="-890" as="targetPoint" />
          </mxGeometry>
        </mxCell>
        <mxCell id="XyRQ7dBo5zJN_Pz7w6I2-21" value="descrizione" style="text;html=1;align=center;verticalAlign=middle;resizable=0;points=[];autosize=1;strokeColor=none;fillColor=none;fontSize=7;" parent="1" vertex="1">
          <mxGeometry x="725" y="-815" width="60" height="20" as="geometry" />
        </mxCell>
        <mxCell id="6DcWZOGvDvhyXqwXBAxN-1" style="edgeStyle=orthogonalEdgeStyle;shape=connector;rounded=0;orthogonalLoop=1;jettySize=auto;html=1;exitX=1;exitY=0.5;exitDx=0;exitDy=0;entryX=-0.005;entryY=0.401;entryDx=0;entryDy=0;entryPerimeter=0;strokeColor=default;align=center;verticalAlign=middle;fontFamily=Helvetica;fontSize=11;fontColor=default;labelBackgroundColor=default;startFill=0;endArrow=none;" edge="1" parent="1" source="XyRQ7dBo5zJN_Pz7w6I2-5" target="XyRQ7dBo5zJN_Pz7w6I2-4">
          <mxGeometry relative="1" as="geometry" />
        </mxCell>
        <mxCell id="6DcWZOGvDvhyXqwXBAxN-3" style="edgeStyle=orthogonalEdgeStyle;shape=connector;rounded=0;orthogonalLoop=1;jettySize=auto;html=1;exitX=1;exitY=0.25;exitDx=0;exitDy=0;entryX=-0.005;entryY=0.49;entryDx=0;entryDy=0;entryPerimeter=0;strokeColor=default;align=center;verticalAlign=middle;fontFamily=Helvetica;fontSize=11;fontColor=default;labelBackgroundColor=default;startFill=0;endArrow=none;" edge="1" parent="1" source="XyRQ7dBo5zJN_Pz7w6I2-4" target="XyRQ7dBo5zJN_Pz7w6I2-21">
          <mxGeometry relative="1" as="geometry" />
        </mxCell>
        <mxCell id="6DcWZOGvDvhyXqwXBAxN-4" style="edgeStyle=orthogonalEdgeStyle;shape=connector;rounded=0;orthogonalLoop=1;jettySize=auto;html=1;exitX=0.5;exitY=0;exitDx=0;exitDy=0;strokeColor=default;align=center;verticalAlign=middle;fontFamily=Times New Roman;fontSize=11;fontColor=default;labelBackgroundColor=default;startFill=0;endArrow=none;" edge="1" parent="1" source="6DcWZOGvDvhyXqwXBAxN-5">
          <mxGeometry relative="1" as="geometry">
            <mxPoint x="234.93959731543623" y="-634.9999999999999" as="targetPoint" />
          </mxGeometry>
        </mxCell>
        <mxCell id="6DcWZOGvDvhyXqwXBAxN-18" style="edgeStyle=orthogonalEdgeStyle;shape=connector;rounded=0;orthogonalLoop=1;jettySize=auto;html=1;exitX=1;exitY=0.25;exitDx=0;exitDy=0;strokeColor=default;align=center;verticalAlign=middle;fontFamily=Helvetica;fontSize=11;fontColor=default;labelBackgroundColor=default;startFill=0;endArrow=none;" edge="1" parent="1" source="6DcWZOGvDvhyXqwXBAxN-5">
          <mxGeometry relative="1" as="geometry">
            <mxPoint x="400" y="-640" as="targetPoint" />
          </mxGeometry>
        </mxCell>
        <mxCell id="6DcWZOGvDvhyXqwXBAxN-5" value="Categoria&amp;nbsp;" style="whiteSpace=wrap;html=1;align=center;fontFamily=Times New Roman;" vertex="1" parent="1">
          <mxGeometry x="170" y="-622.5" width="115" height="40" as="geometry" />
        </mxCell>
        <mxCell id="6DcWZOGvDvhyXqwXBAxN-6" value="" style="ellipse;whiteSpace=wrap;html=1;aspect=fixed;fillColor=#000000;fontFamily=Times New Roman;" vertex="1" parent="1">
          <mxGeometry x="230" y="-665" width="10" height="10" as="geometry" />
        </mxCell>
        <mxCell id="6DcWZOGvDvhyXqwXBAxN-7" value="&lt;font&gt;Nome Categoria&lt;/font&gt;" style="text;html=1;align=center;verticalAlign=middle;resizable=0;points=[];autosize=1;strokeColor=none;fillColor=none;fontFamily=Times New Roman;fontSize=12;fontColor=default;labelBackgroundColor=default;" vertex="1" parent="1">
          <mxGeometry x="185" y="-690" width="100" height="30" as="geometry" />
        </mxCell>
        <mxCell id="6DcWZOGvDvhyXqwXBAxN-8" style="edgeStyle=orthogonalEdgeStyle;rounded=0;orthogonalLoop=1;jettySize=auto;html=1;exitX=0.5;exitY=0;exitDx=0;exitDy=0;endArrow=none;startFill=0;fontFamily=Times New Roman;" edge="1" parent="1">
          <mxGeometry relative="1" as="geometry">
            <mxPoint x="234.93000000000006" y="-634" as="sourcePoint" />
            <mxPoint x="235" y="-655" as="targetPoint" />
          </mxGeometry>
        </mxCell>
        <mxCell id="6DcWZOGvDvhyXqwXBAxN-9" value="Gerarchia" style="shape=rhombus;perimeter=rhombusPerimeter;whiteSpace=wrap;html=1;align=center;fontFamily=Times New Roman;" vertex="1" parent="1">
          <mxGeometry x="175" y="-470" width="120" height="60" as="geometry" />
        </mxCell>
        <mxCell id="6DcWZOGvDvhyXqwXBAxN-10" style="edgeStyle=orthogonalEdgeStyle;shape=connector;rounded=0;orthogonalLoop=1;jettySize=auto;html=1;exitX=0;exitY=0.5;exitDx=0;exitDy=0;entryX=0;entryY=0.5;entryDx=0;entryDy=0;strokeColor=default;align=center;verticalAlign=middle;fontFamily=Times New Roman;fontSize=11;fontColor=default;labelBackgroundColor=default;startFill=0;endArrow=none;" edge="1" parent="1" source="6DcWZOGvDvhyXqwXBAxN-9" target="6DcWZOGvDvhyXqwXBAxN-5">
          <mxGeometry relative="1" as="geometry">
            <mxPoint x="175" y="-391.69" as="sourcePoint" />
            <mxPoint x="170.2299999999999" y="-549.95" as="targetPoint" />
            <Array as="points">
              <mxPoint x="175" y="-439" />
              <mxPoint x="110" y="-439" />
              <mxPoint x="110" y="-600" />
              <mxPoint x="170" y="-600" />
            </Array>
          </mxGeometry>
        </mxCell>
        <mxCell id="6DcWZOGvDvhyXqwXBAxN-12" value="macrocategoria" style="text;html=1;align=center;verticalAlign=middle;resizable=0;points=[];autosize=1;strokeColor=none;fillColor=none;fontFamily=Times New Roman;fontSize=11;fontColor=default;labelBackgroundColor=default;" vertex="1" parent="1">
          <mxGeometry x="30" y="-560" width="90" height="30" as="geometry" />
        </mxCell>
        <mxCell id="6DcWZOGvDvhyXqwXBAxN-13" value="(0,n)" style="text;html=1;align=center;verticalAlign=middle;resizable=0;points=[];autosize=1;strokeColor=none;fillColor=none;fontFamily=Times New Roman;fontSize=11;fontColor=default;labelBackgroundColor=default;" vertex="1" parent="1">
          <mxGeometry x="280" y="-600" width="40" height="30" as="geometry" />
        </mxCell>
        <mxCell id="6DcWZOGvDvhyXqwXBAxN-14" value="sottocategoria" style="text;html=1;align=center;verticalAlign=middle;resizable=0;points=[];autosize=1;strokeColor=none;fillColor=none;fontFamily=Times New Roman;fontSize=11;fontColor=default;labelBackgroundColor=default;" vertex="1" parent="1">
          <mxGeometry x="305" y="-560" width="90" height="30" as="geometry" />
        </mxCell>
        <mxCell id="6DcWZOGvDvhyXqwXBAxN-15" style="edgeStyle=orthogonalEdgeStyle;rounded=0;orthogonalLoop=1;jettySize=auto;html=1;exitX=1;exitY=0.5;exitDx=0;exitDy=0;entryX=1;entryY=0.75;entryDx=0;entryDy=0;endArrow=none;startFill=0;" edge="1" parent="1" source="6DcWZOGvDvhyXqwXBAxN-9" target="6DcWZOGvDvhyXqwXBAxN-5">
          <mxGeometry relative="1" as="geometry">
            <Array as="points">
              <mxPoint x="320" y="-440" />
              <mxPoint x="320" y="-592" />
            </Array>
            <mxPoint x="364.04" y="-448.66" as="sourcePoint" />
            <mxPoint x="309.99500000000006" y="-589.9999999999999" as="targetPoint" />
          </mxGeometry>
        </mxCell>
        <mxCell id="6DcWZOGvDvhyXqwXBAxN-16" value="(0,1)" style="text;html=1;align=center;verticalAlign=middle;resizable=0;points=[];autosize=1;strokeColor=none;fillColor=none;fontFamily=Times New Roman;fontSize=11;fontColor=default;labelBackgroundColor=default;" vertex="1" parent="1">
          <mxGeometry x="135" y="-602" width="40" height="30" as="geometry" />
        </mxCell>
        <mxCell id="6DcWZOGvDvhyXqwXBAxN-19" style="edgeStyle=orthogonalEdgeStyle;shape=connector;rounded=0;orthogonalLoop=1;jettySize=auto;html=1;exitX=0;exitY=0.5;exitDx=0;exitDy=0;strokeColor=default;align=center;verticalAlign=middle;fontFamily=Helvetica;fontSize=11;fontColor=default;labelBackgroundColor=default;startFill=0;endArrow=none;" edge="1" parent="1" source="6DcWZOGvDvhyXqwXBAxN-17">
          <mxGeometry relative="1" as="geometry">
            <mxPoint x="400" y="-639.8571428571429" as="targetPoint" />
          </mxGeometry>
        </mxCell>
        <mxCell id="6DcWZOGvDvhyXqwXBAxN-20" style="edgeStyle=orthogonalEdgeStyle;shape=connector;rounded=0;orthogonalLoop=1;jettySize=auto;html=1;exitX=1;exitY=0.5;exitDx=0;exitDy=0;entryX=0.5;entryY=1;entryDx=0;entryDy=0;strokeColor=default;align=center;verticalAlign=middle;fontFamily=Helvetica;fontSize=11;fontColor=default;labelBackgroundColor=default;startFill=0;endArrow=none;" edge="1" parent="1" source="6DcWZOGvDvhyXqwXBAxN-17" target="XyRQ7dBo5zJN_Pz7w6I2-4">
          <mxGeometry relative="1" as="geometry" />
        </mxCell>
        <mxCell id="6DcWZOGvDvhyXqwXBAxN-17" value="Appartenenza" style="shape=rhombus;perimeter=rhombusPerimeter;whiteSpace=wrap;html=1;align=center;fontFamily=Helvetica;fontSize=11;fontColor=default;labelBackgroundColor=default;" vertex="1" parent="1">
          <mxGeometry x="440" y="-670" width="120" height="60" as="geometry" />
        </mxCell>
        <mxCell id="6DcWZOGvDvhyXqwXBAxN-21" value="(1,1)" style="text;html=1;align=center;verticalAlign=middle;resizable=0;points=[];autosize=1;strokeColor=none;fillColor=none;fontFamily=Times New Roman;fontSize=11;fontColor=default;labelBackgroundColor=default;" vertex="1" parent="1">
          <mxGeometry x="610" y="-762" width="40" height="30" as="geometry" />
        </mxCell>
        <mxCell id="6DcWZOGvDvhyXqwXBAxN-22" value="(&lt;font&gt;1,n)&lt;/font&gt;" style="text;html=1;align=center;verticalAlign=middle;resizable=0;points=[];autosize=1;strokeColor=none;fillColor=none;fontFamily=Times New Roman;fontSize=11;fontColor=default;labelBackgroundColor=default;" vertex="1" parent="1">
          <mxGeometry x="285" y="-640" width="40" height="30" as="geometry" />
        </mxCell>
      </root>
    </mxGraphModel>
  </diagram>
</mxfile>
